<!DOCTYPE svg PUBLIC "-//W3C//DTD SVG 1.1//EN" "http://www.w3.org/Graphics/SVG/1.1/DTD/svg11.dtd">
<!-- Uploaded to: SVG Repo, www.svgrepo.com, Transformed by: SVG Repo Mixer Tools -->
<svg fill="#F87500" version="1.1" id="Capa_1" xmlns="http://www.w3.org/2000/svg" xmlns:xlink="http://www.w3.org/1999/xlink" width="800px" height="800px" viewBox="0 0 174.001 174.001" xml:space="preserve">
<g id="SVGRepo_bgCarrier" stroke-width="0"/>
<g id="SVGRepo_tracerCarrier" stroke-linecap="round" stroke-linejoin="round"/>
<g id="SVGRepo_iconCarrier"> <g> <g> <path d="M160.182,15.415L138.425,0.913C137.539,0.313,136.487,0,135.411,0H70.144c-3,0-5.441,2.433-5.441,5.435 s2.441,5.441,5.441,5.441h16.55c1.238,1.472,2.905,3.07,4.652,4.596c-8.146,2.098-13.956,7.329-13.956,13.491v0.006v15.108 c0,2.917,9.738,5.29,21.757,5.29c12.022,0,21.764-2.373,21.764-5.29V28.969v-0.006c0-6.168-5.811-11.399-13.955-13.491 c1.737-1.525,3.404-3.124,4.657-4.596h22.153l20.387,13.589c0.922,0.624,1.968,0.907,3.003,0.907c1.755,0,3.487-0.849,4.533-2.415 C163.357,20.457,162.683,17.082,160.182,15.415z"/> <path d="M125.421,50.638c-5.095,0-12.483,2.189-26.273,2.237H98.71c-13.568,0-20.862-2.161-25.897-2.161 c-5.344-0.006-8.151,2.441-13.229,12.504c-2.403,4.77-4.554,10.364-6.434,16.319c0.839-0.044,1.664-0.127,2.509-0.127 c1.084,0,2.143,0.098,3.204,0.157c1.658-5.048,3.511-9.806,5.58-13.902c4.8-9.517,6.295-9.517,8.37-9.517 c1.534,0,3.579,0.287,6.167,0.635c4.614,0.644,10.92,1.525,19.736,1.525h0.468c8.901-0.035,15.285-0.931,19.954-1.584 c2.643-0.375,4.729-0.659,6.289-0.659c2.099,0,3.605,0,8.44,9.587c8.92,17.65,14.251,46.822,14.251,64.833 c0,35.347-20.298,38.077-48.959,38.077c-3.925,0-7.684-0.071-11.263-0.248c-2.172,1.82-4.516,3.422-6.972,4.858 c5.707,0.632,11.833,0.827,18.24,0.827c30.057,0,54.392-3.476,54.392-43.515c0-19.275-5.627-49.071-14.824-67.285 C133.62,53.1,130.806,50.638,125.421,50.638z"/> <path d="M93.244,163.066c1.885,0.041,3.854,0.065,5.904,0.065c32.119,0,43.516-4.936,43.516-32.646 c0-8.086-1.147-18.489-3.187-28.999H97.274c5.485,8.051,8.701,17.78,8.701,28.242C105.975,142.521,101.134,154.177,93.244,163.066 z"/> <path d="M98.421,118.274c-6.325-23.572-30.642-37.61-54.217-31.297c-23.569,6.319-37.613,30.635-31.294,54.208 c6.321,23.572,30.638,37.616,54.202,31.298C90.684,166.163,104.74,141.847,98.421,118.274z M66.58,170.496 c-22.473,6.022-45.66-7.364-51.684-29.844c-6.023-22.484,7.368-45.666,29.841-51.684c22.484-6.029,45.675,7.359,51.698,29.838 S89.064,164.473,66.58,170.496z"/> <path d="M17.396,141.562c2.929,9.481,9.079,17.124,16.922,22.071l18.17-31.469L17.396,141.562z"/> <path d="M74.353,94.294c-8.195-4.32-17.904-5.821-27.583-3.623l9.407,35.099L74.353,94.294z"/> <path d="M20.222,111.04c-4.327,8.204-5.822,17.897-3.618,27.579l35.093-9.409L20.222,111.04z"/> <path d="M43.823,91.463c-9.481,2.933-17.129,9.079-22.068,16.929l31.472,18.17L43.823,91.463z"/> <path d="M36.97,165.159c8.195,4.332,17.892,5.833,27.571,3.629l-9.407-35.099L36.97,165.159z"/> <path d="M93.935,117.896c-2.932-9.476-9.082-17.13-16.943-22.071l-18.158,31.469L93.935,117.896z"/> <path d="M67.493,167.996c9.472-2.92,17.129-9.079,22.068-16.935l-31.472-18.164L67.493,167.996z"/> <path d="M59.625,130.25l31.46,18.169c4.339-8.197,5.847-17.897,3.642-27.579L59.625,130.25z"/> </g> </g> </g>
</svg>